<mxfile host="Electron" agent="Mozilla/5.0 (Macintosh; Intel Mac OS X 10_15_7) AppleWebKit/537.36 (KHTML, like Gecko) draw.io/24.7.17 Chrome/128.0.6613.36 Electron/32.0.1 Safari/537.36" version="24.7.17">
  <diagram name="Page-1" id="BIwDTJyxh7zGUDiggMT-">
    <mxGraphModel dx="1360" dy="1543" grid="0" gridSize="10" guides="1" tooltips="1" connect="1" arrows="1" fold="1" page="0" pageScale="1" pageWidth="850" pageHeight="1100" math="0" shadow="0">
      <root>
        <mxCell id="0" />
        <mxCell id="1" parent="0" />
        <mxCell id="Z5uCJFTZ02c9Yqs03wYv-1" value="" style="rounded=0;whiteSpace=wrap;html=1;sketch=1;curveFitting=1;jiggle=2;fillColor=#f5f5f5;fontColor=#333333;strokeColor=#666666;" parent="1" vertex="1">
          <mxGeometry x="84" y="509" width="802" height="423" as="geometry" />
        </mxCell>
        <mxCell id="PlNmb0B_r6p4pkELcmV9-13" style="rounded=0;orthogonalLoop=1;jettySize=auto;html=1;entryX=0;entryY=0.5;entryDx=0;entryDy=0;exitX=1;exitY=0.5;exitDx=0;exitDy=0;dashed=1;dashPattern=1 2;" parent="1" source="PlNmb0B_r6p4pkELcmV9-1" target="PlNmb0B_r6p4pkELcmV9-4" edge="1">
          <mxGeometry relative="1" as="geometry" />
        </mxCell>
        <mxCell id="PlNmb0B_r6p4pkELcmV9-14" style="edgeStyle=orthogonalEdgeStyle;rounded=0;orthogonalLoop=1;jettySize=auto;html=1;entryX=0;entryY=0.5;entryDx=0;entryDy=0;dashed=1;dashPattern=1 2;" parent="1" source="PlNmb0B_r6p4pkELcmV9-1" target="PlNmb0B_r6p4pkELcmV9-5" edge="1">
          <mxGeometry relative="1" as="geometry" />
        </mxCell>
        <mxCell id="PlNmb0B_r6p4pkELcmV9-15" style="rounded=0;orthogonalLoop=1;jettySize=auto;html=1;entryX=0;entryY=0.5;entryDx=0;entryDy=0;exitX=1;exitY=0.5;exitDx=0;exitDy=0;dashed=1;dashPattern=1 2;" parent="1" source="PlNmb0B_r6p4pkELcmV9-1" target="PlNmb0B_r6p4pkELcmV9-6" edge="1">
          <mxGeometry relative="1" as="geometry">
            <mxPoint x="434" y="697" as="sourcePoint" />
          </mxGeometry>
        </mxCell>
        <mxCell id="PlNmb0B_r6p4pkELcmV9-1" value="&lt;span style=&quot;white-space: pre;&quot;&gt;&#x9;&lt;/span&gt;Product-composite" style="rounded=1;whiteSpace=wrap;html=1;align=left;fillColor=#e1d5e7;strokeColor=#9673a6;" parent="1" vertex="1">
          <mxGeometry x="301" y="673" width="135" height="55" as="geometry" />
        </mxCell>
        <mxCell id="PlNmb0B_r6p4pkELcmV9-4" value="Product-service" style="rounded=1;whiteSpace=wrap;html=1;align=center;fillColor=#e1d5e7;strokeColor=#9673a6;" parent="1" vertex="1">
          <mxGeometry x="539" y="573.5" width="136" height="56.5" as="geometry" />
        </mxCell>
        <mxCell id="PlNmb0B_r6p4pkELcmV9-5" value="Review-service" style="rounded=1;whiteSpace=wrap;html=1;align=center;fillColor=#e1d5e7;strokeColor=#9673a6;" parent="1" vertex="1">
          <mxGeometry x="539" y="672.5" width="136" height="55" as="geometry" />
        </mxCell>
        <mxCell id="PlNmb0B_r6p4pkELcmV9-12" style="edgeStyle=orthogonalEdgeStyle;rounded=0;orthogonalLoop=1;jettySize=auto;html=1;dashed=1;dashPattern=1 1;" parent="1" source="PlNmb0B_r6p4pkELcmV9-6" target="PlNmb0B_r6p4pkELcmV9-9" edge="1">
          <mxGeometry relative="1" as="geometry" />
        </mxCell>
        <mxCell id="G_KLAAXQJVNudBImhwuH-2" style="edgeStyle=orthogonalEdgeStyle;rounded=0;orthogonalLoop=1;jettySize=auto;html=1;dashed=1;dashPattern=1 1;exitX=0.5;exitY=1;exitDx=0;exitDy=0;" parent="1" source="PlNmb0B_r6p4pkELcmV9-16" target="G_KLAAXQJVNudBImhwuH-1" edge="1">
          <mxGeometry relative="1" as="geometry" />
        </mxCell>
        <mxCell id="PlNmb0B_r6p4pkELcmV9-6" value="Recommendation-service" style="rounded=1;whiteSpace=wrap;html=1;align=center;fillColor=#e1d5e7;strokeColor=#9673a6;" parent="1" vertex="1">
          <mxGeometry x="539" y="766" width="136" height="55" as="geometry" />
        </mxCell>
        <mxCell id="PlNmb0B_r6p4pkELcmV9-7" value="MongoDb" style="shape=cylinder3;whiteSpace=wrap;html=1;boundedLbl=1;backgroundOutline=1;size=15;fillColor=#ffe6cc;strokeColor=#d79b00;shadow=1;" parent="1" vertex="1">
          <mxGeometry x="778" y="564.25" width="59" height="75" as="geometry" />
        </mxCell>
        <mxCell id="PlNmb0B_r6p4pkELcmV9-8" value="&lt;div&gt;Postgres&lt;/div&gt;" style="shape=cylinder3;whiteSpace=wrap;html=1;boundedLbl=1;backgroundOutline=1;size=15;fillColor=#ffe6cc;strokeColor=#d79b00;shadow=1;" parent="1" vertex="1">
          <mxGeometry x="780" y="662.5" width="59" height="75" as="geometry" />
        </mxCell>
        <mxCell id="PlNmb0B_r6p4pkELcmV9-9" value="Postgres" style="shape=cylinder3;whiteSpace=wrap;html=1;boundedLbl=1;backgroundOutline=1;size=15;fillColor=#ffe6cc;strokeColor=#d79b00;shadow=1;" parent="1" vertex="1">
          <mxGeometry x="780" y="756.5" width="59" height="75" as="geometry" />
        </mxCell>
        <mxCell id="PlNmb0B_r6p4pkELcmV9-10" style="edgeStyle=orthogonalEdgeStyle;rounded=0;orthogonalLoop=1;jettySize=auto;html=1;entryX=0;entryY=0.5;entryDx=0;entryDy=0;entryPerimeter=0;dashed=1;dashPattern=1 2;" parent="1" source="PlNmb0B_r6p4pkELcmV9-4" target="PlNmb0B_r6p4pkELcmV9-7" edge="1">
          <mxGeometry relative="1" as="geometry" />
        </mxCell>
        <mxCell id="PlNmb0B_r6p4pkELcmV9-11" style="edgeStyle=orthogonalEdgeStyle;rounded=0;orthogonalLoop=1;jettySize=auto;html=1;entryX=0;entryY=0.5;entryDx=0;entryDy=0;entryPerimeter=0;dashed=1;dashPattern=1 2;" parent="1" source="PlNmb0B_r6p4pkELcmV9-5" target="PlNmb0B_r6p4pkELcmV9-8" edge="1">
          <mxGeometry relative="1" as="geometry" />
        </mxCell>
        <mxCell id="PlNmb0B_r6p4pkELcmV9-17" style="edgeStyle=orthogonalEdgeStyle;rounded=0;orthogonalLoop=1;jettySize=auto;html=1;entryX=0;entryY=0.5;entryDx=0;entryDy=0;dashed=1;dashPattern=1 2;" parent="1" source="PlNmb0B_r6p4pkELcmV9-16" target="PlNmb0B_r6p4pkELcmV9-1" edge="1">
          <mxGeometry relative="1" as="geometry" />
        </mxCell>
        <mxCell id="QizPW6AbYtv409xV3wsI-7" style="edgeStyle=orthogonalEdgeStyle;rounded=0;orthogonalLoop=1;jettySize=auto;html=1;dashed=1;dashPattern=1 2;strokeColor=#CC0000;" parent="1" source="PlNmb0B_r6p4pkELcmV9-16" target="QizPW6AbYtv409xV3wsI-2" edge="1">
          <mxGeometry relative="1" as="geometry" />
        </mxCell>
        <mxCell id="PlNmb0B_r6p4pkELcmV9-16" value="API Gateway" style="rounded=1;whiteSpace=wrap;html=1;align=center;fillColor=#dae8fc;strokeColor=#6c8ebf;" parent="1" vertex="1">
          <mxGeometry x="118" y="676" width="136" height="48" as="geometry" />
        </mxCell>
        <mxCell id="G_KLAAXQJVNudBImhwuH-1" value="AWS&lt;div&gt;Redis&lt;/div&gt;" style="shape=cylinder3;whiteSpace=wrap;html=1;boundedLbl=1;backgroundOutline=1;size=15;fillColor=#f8cecc;strokeColor=#b85450;shadow=1;" parent="1" vertex="1">
          <mxGeometry x="163.5" y="775" width="45" height="64" as="geometry" />
        </mxCell>
        <mxCell id="Z5uCJFTZ02c9Yqs03wYv-3" style="edgeStyle=orthogonalEdgeStyle;rounded=0;orthogonalLoop=1;jettySize=auto;html=1;exitX=0.5;exitY=1;exitDx=0;exitDy=0;" parent="1" source="Z5uCJFTZ02c9Yqs03wYv-1" target="Z5uCJFTZ02c9Yqs03wYv-1" edge="1">
          <mxGeometry relative="1" as="geometry" />
        </mxCell>
        <mxCell id="Z5uCJFTZ02c9Yqs03wYv-4" value="" style="rounded=0;whiteSpace=wrap;html=1;sketch=1;curveFitting=1;jiggle=2;fillColor=#f5f5f5;fontColor=#333333;strokeColor=#666666;" parent="1" vertex="1">
          <mxGeometry x="87" y="941" width="799" height="123" as="geometry" />
        </mxCell>
        <mxCell id="Z5uCJFTZ02c9Yqs03wYv-5" value="[System Boundry]" style="text;html=1;align=center;verticalAlign=middle;whiteSpace=wrap;rounded=0;fontStyle=0;fontColor=#808080;" parent="1" vertex="1">
          <mxGeometry x="739" y="515" width="117" height="30" as="geometry" />
        </mxCell>
        <mxCell id="Z5uCJFTZ02c9Yqs03wYv-6" value="[Middleware]" style="text;html=1;align=center;verticalAlign=middle;whiteSpace=wrap;rounded=0;fontStyle=0;fontColor=#808080;" parent="1" vertex="1">
          <mxGeometry x="751" y="945" width="124" height="30" as="geometry" />
        </mxCell>
        <mxCell id="Z5uCJFTZ02c9Yqs03wYv-7" value="" style="shape=cylinder3;whiteSpace=wrap;html=1;boundedLbl=1;backgroundOutline=1;size=15;rotation=-90;fillColor=#f8cecc;strokeColor=#b85450;shadow=1;" parent="1" vertex="1">
          <mxGeometry x="348.75" y="885.75" width="39" height="200" as="geometry" />
        </mxCell>
        <mxCell id="Z5uCJFTZ02c9Yqs03wYv-8" value="Kafka Topic" style="text;html=1;align=center;verticalAlign=middle;whiteSpace=wrap;rounded=0;" parent="1" vertex="1">
          <mxGeometry x="312" y="1004" width="91.5" height="30" as="geometry" />
        </mxCell>
        <mxCell id="Z5uCJFTZ02c9Yqs03wYv-11" style="edgeStyle=orthogonalEdgeStyle;rounded=0;orthogonalLoop=1;jettySize=auto;html=1;entryX=1;entryY=0.75;entryDx=0;entryDy=0;dashed=1;dashPattern=1 2;strokeColor=#3333FF;" parent="1" source="Z5uCJFTZ02c9Yqs03wYv-9" target="PlNmb0B_r6p4pkELcmV9-4" edge="1">
          <mxGeometry relative="1" as="geometry">
            <Array as="points">
              <mxPoint x="730" y="986" />
              <mxPoint x="730" y="616" />
            </Array>
          </mxGeometry>
        </mxCell>
        <mxCell id="Z5uCJFTZ02c9Yqs03wYv-9" value="PRODUCT-TOPIC" style="text;html=1;align=center;verticalAlign=middle;whiteSpace=wrap;rounded=0;fontStyle=1;" parent="1" vertex="1">
          <mxGeometry x="293" y="970.75" width="176" height="30" as="geometry" />
        </mxCell>
        <mxCell id="Z5uCJFTZ02c9Yqs03wYv-10" style="edgeStyle=orthogonalEdgeStyle;rounded=0;orthogonalLoop=1;jettySize=auto;html=1;entryX=1;entryY=0.5;entryDx=0;entryDy=0;entryPerimeter=0;dashed=1;dashPattern=1 2;strokeColor=#3333FF;" parent="1" source="PlNmb0B_r6p4pkELcmV9-1" target="Z5uCJFTZ02c9Yqs03wYv-7" edge="1">
          <mxGeometry relative="1" as="geometry" />
        </mxCell>
        <mxCell id="Z5uCJFTZ02c9Yqs03wYv-12" value="" style="rounded=1;whiteSpace=wrap;html=1;sketch=1;curveFitting=1;jiggle=2;fillColor=#f5f5f5;fontColor=#333333;strokeColor=#666666;" parent="1" vertex="1">
          <mxGeometry x="-45" y="509" width="120" height="426" as="geometry" />
        </mxCell>
        <mxCell id="Z5uCJFTZ02c9Yqs03wYv-14" style="edgeStyle=orthogonalEdgeStyle;rounded=0;orthogonalLoop=1;jettySize=auto;html=1;entryX=0;entryY=0.5;entryDx=0;entryDy=0;dashed=1;dashPattern=1 2;" parent="1" source="Z5uCJFTZ02c9Yqs03wYv-13" target="PlNmb0B_r6p4pkELcmV9-16" edge="1">
          <mxGeometry relative="1" as="geometry" />
        </mxCell>
        <mxCell id="QizPW6AbYtv409xV3wsI-4" style="edgeStyle=orthogonalEdgeStyle;rounded=0;orthogonalLoop=1;jettySize=auto;html=1;entryX=0;entryY=0.5;entryDx=0;entryDy=0;dashed=1;dashPattern=1 2;strokeColor=#CC0000;" parent="1" source="Z5uCJFTZ02c9Yqs03wYv-13" target="QizPW6AbYtv409xV3wsI-2" edge="1">
          <mxGeometry relative="1" as="geometry">
            <Array as="points">
              <mxPoint x="15" y="580" />
            </Array>
          </mxGeometry>
        </mxCell>
        <mxCell id="Z5uCJFTZ02c9Yqs03wYv-13" value="Product-UI" style="rounded=1;whiteSpace=wrap;html=1;align=center;fillColor=#dae8fc;strokeColor=#6c8ebf;" parent="1" vertex="1">
          <mxGeometry x="-36.5" y="676" width="103" height="48" as="geometry" />
        </mxCell>
        <mxCell id="Z5uCJFTZ02c9Yqs03wYv-15" value="[External]" style="text;html=1;align=center;verticalAlign=middle;whiteSpace=wrap;rounded=0;fontStyle=0;fontColor=#808080;" parent="1" vertex="1">
          <mxGeometry x="-43.5" y="513" width="117" height="30" as="geometry" />
        </mxCell>
        <mxCell id="5F3K3SP7pyhhEmXkgCej-5" value="Reactive" style="text;html=1;align=center;verticalAlign=middle;whiteSpace=wrap;rounded=0;fillColor=none;fontColor=#3333FF;" parent="1" vertex="1">
          <mxGeometry x="699" y="579" width="76" height="16" as="geometry" />
        </mxCell>
        <mxCell id="5F3K3SP7pyhhEmXkgCej-8" value="" style="shape=image;imageAspect=0;aspect=fixed;verticalLabelPosition=bottom;verticalAlign=top;image=data:image/png,iVBORw0KGgoAAAANSUhEUgAAABgAAAAYCAYAAADgdz34AAAAAXNSR0IArs4c6QAAAg9JREFUSEvllMFLFFEcx7+/2Zll3iab7o6iIiJE0CH6AzoF0d0oopOHZqLMg0QIHbdbdJAkOrWbl04rgfe8eQg66TEQPUQUuzOZ7uZbdWZ+MbvarsuOPlw8SL/L4/H7/d7nfb/zm0c446AzPh//E6D4TZiV1OvI0pqdfaRqrbpFH7y0qPFWdLB0LOW++ELmo7k3a0nzQub5gYIXXSkQhfIMmF6BUAIjA0AnxjgTFmMVvC31YGqg2g7uqKAN0AfAOA6QelfOM5Gd0PYHqg+Gyq2QJoCZRMFdiZIMbY4QTgP0C4w0iHVmekpEs/VmwhI4vAXQqnSsCZF3JQATwE9pZ4dBxIeQJiDHmhjxgoNE5PXLOIsAfARwB8Bn6VjXRd6tAOhps2dBOta9BiDHerSkRt1r9f0+fsDAEHEYMJMGjShJ+vqe71+K0kEY/k4Y2kU/ILmnVzZEkJ4H+H4rICS+smv3f60DRN7dBNCrOhnxdbQO5tWE7z+uTg6WGm42ANGmv1uAtLNaq/9NQMFdAONuVwCiZ9LONoagJeoKzPnNMQqCjS4Aa9KxLnfq/zdFp7aJ8V0+tEbiLtcc0yInxbZXO/wuKmoIeL/jWPZxtUf/5CInzG1vhYCrJzR92kn6tzEx+Oeki3R+7HKsm6PeDWLcZKY+DeyC+IuxayxvPemNRlo5lJ9d5RM7TdFpm1X6zr+Cv8+Guhm4YE01AAAAAElFTkSuQmCC;" parent="1" vertex="1">
          <mxGeometry x="645" y="606" width="24" height="24" as="geometry" />
        </mxCell>
        <mxCell id="5F3K3SP7pyhhEmXkgCej-9" value="" style="shape=image;imageAspect=0;aspect=fixed;verticalLabelPosition=bottom;verticalAlign=top;image=data:image/png,iVBORw0KGgoAAAANSUhEUgAAABgAAAAYCAYAAADgdz34AAAAAXNSR0IArs4c6QAAAg9JREFUSEvllMFLFFEcx7+/2Zll3iab7o6iIiJE0CH6AzoF0d0oopOHZqLMg0QIHbdbdJAkOrWbl04rgfe8eQg66TEQPUQUuzOZ7uZbdWZ+MbvarsuOPlw8SL/L4/H7/d7nfb/zm0c446AzPh//E6D4TZiV1OvI0pqdfaRqrbpFH7y0qPFWdLB0LOW++ELmo7k3a0nzQub5gYIXXSkQhfIMmF6BUAIjA0AnxjgTFmMVvC31YGqg2g7uqKAN0AfAOA6QelfOM5Gd0PYHqg+Gyq2QJoCZRMFdiZIMbY4QTgP0C4w0iHVmekpEs/VmwhI4vAXQqnSsCZF3JQATwE9pZ4dBxIeQJiDHmhjxgoNE5PXLOIsAfARwB8Bn6VjXRd6tAOhps2dBOta9BiDHerSkRt1r9f0+fsDAEHEYMJMGjShJ+vqe71+K0kEY/k4Y2kU/ILmnVzZEkJ4H+H4rICS+smv3f60DRN7dBNCrOhnxdbQO5tWE7z+uTg6WGm42ANGmv1uAtLNaq/9NQMFdAONuVwCiZ9LONoagJeoKzPnNMQqCjS4Aa9KxLnfq/zdFp7aJ8V0+tEbiLtcc0yInxbZXO/wuKmoIeL/jWPZxtUf/5CInzG1vhYCrJzR92kn6tzEx+Oeki3R+7HKsm6PeDWLcZKY+DeyC+IuxayxvPemNRlo5lJ9d5RM7TdFpm1X6zr+Cv8+Guhm4YE01AAAAAElFTkSuQmCC;" parent="1" vertex="1">
          <mxGeometry x="645" y="706.5" width="24" height="24" as="geometry" />
        </mxCell>
        <mxCell id="5F3K3SP7pyhhEmXkgCej-10" value="" style="shape=image;imageAspect=0;aspect=fixed;verticalLabelPosition=bottom;verticalAlign=top;image=data:image/png,iVBORw0KGgoAAAANSUhEUgAAABgAAAAYCAYAAADgdz34AAAAAXNSR0IArs4c6QAAAg9JREFUSEvllMFLFFEcx7+/2Zll3iab7o6iIiJE0CH6AzoF0d0oopOHZqLMg0QIHbdbdJAkOrWbl04rgfe8eQg66TEQPUQUuzOZ7uZbdWZ+MbvarsuOPlw8SL/L4/H7/d7nfb/zm0c446AzPh//E6D4TZiV1OvI0pqdfaRqrbpFH7y0qPFWdLB0LOW++ELmo7k3a0nzQub5gYIXXSkQhfIMmF6BUAIjA0AnxjgTFmMVvC31YGqg2g7uqKAN0AfAOA6QelfOM5Gd0PYHqg+Gyq2QJoCZRMFdiZIMbY4QTgP0C4w0iHVmekpEs/VmwhI4vAXQqnSsCZF3JQATwE9pZ4dBxIeQJiDHmhjxgoNE5PXLOIsAfARwB8Bn6VjXRd6tAOhps2dBOta9BiDHerSkRt1r9f0+fsDAEHEYMJMGjShJ+vqe71+K0kEY/k4Y2kU/ILmnVzZEkJ4H+H4rICS+smv3f60DRN7dBNCrOhnxdbQO5tWE7z+uTg6WGm42ANGmv1uAtLNaq/9NQMFdAONuVwCiZ9LONoagJeoKzPnNMQqCjS4Aa9KxLnfq/zdFp7aJ8V0+tEbiLtcc0yInxbZXO/wuKmoIeL/jWPZxtUf/5CInzG1vhYCrJzR92kn6tzEx+Oeki3R+7HKsm6PeDWLcZKY+DeyC+IuxayxvPemNRlo5lJ9d5RM7TdFpm1X6zr+Cv8+Guhm4YE01AAAAAElFTkSuQmCC;" parent="1" vertex="1">
          <mxGeometry x="645" y="798" width="24" height="24" as="geometry" />
        </mxCell>
        <mxCell id="5F3K3SP7pyhhEmXkgCej-11" value="" style="shape=image;imageAspect=0;aspect=fixed;verticalLabelPosition=bottom;verticalAlign=top;image=data:image/png,iVBORw0KGgoAAAANSUhEUgAAABgAAAAYCAYAAADgdz34AAAAAXNSR0IArs4c6QAAAg9JREFUSEvllMFLFFEcx7+/2Zll3iab7o6iIiJE0CH6AzoF0d0oopOHZqLMg0QIHbdbdJAkOrWbl04rgfe8eQg66TEQPUQUuzOZ7uZbdWZ+MbvarsuOPlw8SL/L4/H7/d7nfb/zm0c446AzPh//E6D4TZiV1OvI0pqdfaRqrbpFH7y0qPFWdLB0LOW++ELmo7k3a0nzQub5gYIXXSkQhfIMmF6BUAIjA0AnxjgTFmMVvC31YGqg2g7uqKAN0AfAOA6QelfOM5Gd0PYHqg+Gyq2QJoCZRMFdiZIMbY4QTgP0C4w0iHVmekpEs/VmwhI4vAXQqnSsCZF3JQATwE9pZ4dBxIeQJiDHmhjxgoNE5PXLOIsAfARwB8Bn6VjXRd6tAOhps2dBOta9BiDHerSkRt1r9f0+fsDAEHEYMJMGjShJ+vqe71+K0kEY/k4Y2kU/ILmnVzZEkJ4H+H4rICS+smv3f60DRN7dBNCrOhnxdbQO5tWE7z+uTg6WGm42ANGmv1uAtLNaq/9NQMFdAONuVwCiZ9LONoagJeoKzPnNMQqCjS4Aa9KxLnfq/zdFp7aJ8V0+tEbiLtcc0yInxbZXO/wuKmoIeL/jWPZxtUf/5CInzG1vhYCrJzR92kn6tzEx+Oeki3R+7HKsm6PeDWLcZKY+DeyC+IuxayxvPemNRlo5lJ9d5RM7TdFpm1X6zr+Cv8+Guhm4YE01AAAAAElFTkSuQmCC;" parent="1" vertex="1">
          <mxGeometry x="369" y="704" width="24" height="24" as="geometry" />
        </mxCell>
        <mxCell id="5F3K3SP7pyhhEmXkgCej-12" value="" style="shape=image;imageAspect=0;aspect=fixed;verticalLabelPosition=bottom;verticalAlign=top;image=data:image/png,iVBORw0KGgoAAAANSUhEUgAAABgAAAAYCAYAAADgdz34AAAAAXNSR0IArs4c6QAAAg9JREFUSEvllMFLFFEcx7+/2Zll3iab7o6iIiJE0CH6AzoF0d0oopOHZqLMg0QIHbdbdJAkOrWbl04rgfe8eQg66TEQPUQUuzOZ7uZbdWZ+MbvarsuOPlw8SL/L4/H7/d7nfb/zm0c446AzPh//E6D4TZiV1OvI0pqdfaRqrbpFH7y0qPFWdLB0LOW++ELmo7k3a0nzQub5gYIXXSkQhfIMmF6BUAIjA0AnxjgTFmMVvC31YGqg2g7uqKAN0AfAOA6QelfOM5Gd0PYHqg+Gyq2QJoCZRMFdiZIMbY4QTgP0C4w0iHVmekpEs/VmwhI4vAXQqnSsCZF3JQATwE9pZ4dBxIeQJiDHmhjxgoNE5PXLOIsAfARwB8Bn6VjXRd6tAOhps2dBOta9BiDHerSkRt1r9f0+fsDAEHEYMJMGjShJ+vqe71+K0kEY/k4Y2kU/ILmnVzZEkJ4H+H4rICS+smv3f60DRN7dBNCrOhnxdbQO5tWE7z+uTg6WGm42ANGmv1uAtLNaq/9NQMFdAONuVwCiZ9LONoagJeoKzPnNMQqCjS4Aa9KxLnfq/zdFp7aJ8V0+tEbiLtcc0yInxbZXO/wuKmoIeL/jWPZxtUf/5CInzG1vhYCrJzR92kn6tzEx+Oeki3R+7HKsm6PeDWLcZKY+DeyC+IuxayxvPemNRlo5lJ9d5RM7TdFpm1X6zr+Cv8+Guhm4YE01AAAAAElFTkSuQmCC;" parent="1" vertex="1">
          <mxGeometry x="225" y="699" width="24" height="24" as="geometry" />
        </mxCell>
        <mxCell id="5F3K3SP7pyhhEmXkgCej-13" value="REST" style="text;html=1;align=center;verticalAlign=middle;whiteSpace=wrap;rounded=0;fontSize=9;" parent="1" vertex="1">
          <mxGeometry x="444" y="632" width="60" height="30" as="geometry" />
        </mxCell>
        <mxCell id="5F3K3SP7pyhhEmXkgCej-14" value="REST" style="text;html=1;align=center;verticalAlign=middle;whiteSpace=wrap;rounded=0;fontSize=9;" parent="1" vertex="1">
          <mxGeometry x="462" y="676" width="60" height="30" as="geometry" />
        </mxCell>
        <mxCell id="5F3K3SP7pyhhEmXkgCej-17" value="HTTPS" style="text;html=1;align=center;verticalAlign=middle;whiteSpace=wrap;rounded=0;fontSize=9;fontColor=#FF3333;" parent="1" vertex="1">
          <mxGeometry x="246" y="696" width="60" height="30" as="geometry" />
        </mxCell>
        <mxCell id="5F3K3SP7pyhhEmXkgCej-19" value="HTTPS" style="text;html=1;align=center;verticalAlign=middle;whiteSpace=wrap;rounded=0;fontSize=9;fontColor=#FF3333;" parent="1" vertex="1">
          <mxGeometry x="473" y="658" width="60" height="20" as="geometry" />
        </mxCell>
        <mxCell id="5F3K3SP7pyhhEmXkgCej-20" value="HTTPS" style="text;html=1;align=center;verticalAlign=middle;whiteSpace=wrap;rounded=0;fontSize=9;fontColor=#FF3333;" parent="1" vertex="1">
          <mxGeometry x="444" y="622" width="60" height="30" as="geometry" />
        </mxCell>
        <mxCell id="5F3K3SP7pyhhEmXkgCej-21" value="HTTPS" style="text;html=1;align=center;verticalAlign=middle;whiteSpace=wrap;rounded=0;fontSize=9;fontColor=#FF3333;" parent="1" vertex="1">
          <mxGeometry x="320" y="813" width="60" height="30" as="geometry" />
        </mxCell>
        <mxCell id="5F3K3SP7pyhhEmXkgCej-22" value="HTTPS" style="text;html=1;align=center;verticalAlign=middle;whiteSpace=wrap;rounded=0;fontSize=9;fontColor=#FF3333;" parent="1" vertex="1">
          <mxGeometry x="137" y="731" width="60" height="30" as="geometry" />
        </mxCell>
        <mxCell id="5F3K3SP7pyhhEmXkgCej-24" value="" style="shape=image;imageAspect=0;aspect=fixed;verticalLabelPosition=bottom;verticalAlign=top;image=data:image/png,iVBORw0KGgoAAAANSUhEUgAAACEAAAAgCAYAAACcuBHKAAAAAXNSR0IArs4c6QAABrBJREFUWEelV3lU1FUU/u5szMAMAjMMYJaaLZ7K8pBGVi7lCTxKppUt1jELK1MSCXdERZFcUqP0RKtbaHpKxWxf8GjYUUzLbNPSQ1bAyDKAMDMwM6/ug4GRmR9g3b/mvLu8b+7y3fcj/EcRQtwE4AsAFgANAO4hoqL/Eo4u1UkIcSeADytrvYaUvEr8WemBNUKNN9PMuMysdgN4hIjeu5S43QYhhJgAYFupza2ZkleF6npvwD0mgwr5qVHof7mWldOJKL87YLoEIYSYDuDlk6XNqmkbqtDgFF3G1WkJa5+KxJD+IWy7iIiWdeakCEIIsRRAVvFPLmS8WYNmd9eXd7xIrQIWPxqBMYMNrHoFQBoRBQQKACGEeBXA1H1HHMjeZoc3MOsX3fXty3EYPqccFzrJEBEwY6wJk0Ya2Xc7EU30D3IRCCHE6Y+POq7K2mJHd/83g7hlZhk8XYD1XZp6jwlP3G08T0RW31kbCCGEwe0RjQnp5V3W3N/gaF4cBqWVXZLPZzkxMIerYojIxo7+ICZ8/ZNrZ1p+dZcBe1nUmHVfD8RfpUOYnmSzHv+9CWt316HUxlPauTwz2oSnRxnnENHqjiC+mbq+6taSU01tERY+3ANDb9AjaWGFPAsPVWHfEqu8WElczQLjc86josYjTVanROLqnhqMW3a+zYV55eOl1rNEdGVHEO6E9DK1u8VXikoFbM2wILqHGjnv1mLd05Hy/MBJJzI32xFlUqFwkRULNttR9L0Tcx4Ix/jbQqXNvI01GDckFAOv1OG+5e2gfLG5l4i4ZVvL8e84qoSAR6m2nBFf8LHZNvxV1YJ0QB8dNj1vRl5hHbZ8ycwNMGEVrYyRda6s9SIpqyWLHaX4xVjodWQgIqdEIoQYdKbcXTIhtz1l/k57F1uZkuWRze5B8hKbnIa7btLLdO840IBV79XJi7fNteCay7TStsktMOT54I2eOzkCSfGGcURU6ANRsHxH7cRdxY0BiENDCAdXx+Lgjy54vQLDB+ilzdT1VRh+gx6PjAjDd2easGJnLbbPjQYn+PTfzTjwgwspSUY8troSP59rDoh7fW8ttmRYDhLRMB+ICyPmVoTVOwKHfUqSEc+OMWHo7HI0ugSmJ5vwZKIknaCy/wcnMt6ogYqAkrw4nCxtxuNrKgNsW/VuItL6QIibZwSf9e2t6fXXPzXKiKmjTRACWLenDqnJJvC++PpHF9Jeax/xIy/FSZuE9OCxGaSKoCYhRE/7Be9fIxcEb6APs62w9lBj8MwymE0qTBllwv23h4L3Qu6OWrxf3IjrrtBi6yyLZNl9hx3I/6ge5TUe7F8ZA6NBhUEKf3BLhgXX99YOZBCLCooasplogsn7mdHoE6MJqnM0CTy7vhqrnoyQb4pgwruH/0AwSYw34IXJERsZxLlxS229zlW2E8RzY0147M4waNTtpFTf6MXxM0349JgTJadcKMyywhDSrudp4WwO6K0FB0/or5MZlNMHwOESOHrahfTXa9rw6HWE4hdj6xmEd1BaGXHtfMIEYwolHDzpgkYNHF4Xh8+OOTB/k73NhsmG5cTZJtzYVyd/M8/44jw4LAxzHwjHgk12fHrMgbgoNW7tH4Ldhy6eQElaQojGMYttBq6hkryRZkZ8Px0SF1agqs4rg22YFoU/bG5J0fmpZgy+RoeXCuuw9csG6DSEb9bGwiuAwZ0st1Y7L4MY7vFif8LMMsX1zbPPnc5jxSnfkxUtmfGO2eUyzdykrOf689mBVbEygw+tOI/f/lZeaGwXpqeJvhF9pazak8pMqCRMWuzUwvaQpZr5evs4po8Pl33kEy4dl1AxuzPMvIV3EdH9/qv8lw+OOK5d8k573TsGYACfLIuBJVzV0nCihZq1GpJZ8snoRTZU2JXLO2lkGNLuDS8nItlYHV9Wrllv1eh4IypJ0YoYFBS1LKvkBAOijGrw+i457cK2ogZszrDIPuB+CCa81t+dF83UrCUiSdEdQTAf1ydmVqAqyJN+5EA9XpgcKZ9zSpIzKQJ9YzV4dFUgVfsaFkDbqyoAREuKxRAhcIgJxn9sWVcwx4LPjzmx6YsLiiBMoSp8lRsTlKAOrYlFiJbk5vQPEPSJJITIqa73Zt6dGZzKFRF0oiiYbeGPoreJKCWg15T8hBDf7j/hjOdvjv8r05JNSEk0tj3nug2itTSN2QV2w97DyqPWFUBm043pZiYLXbAPn6A94R9UCMHfcU5eUkdOubq6L0DfL06DnfOj+TySiBRnvzvfohzlVw50ySiAen6KElFpZ77/AByXv0C3+ik6AAAAAElFTkSuQmCC;" parent="1" vertex="1">
          <mxGeometry x="850" y="896" width="33" height="32" as="geometry" />
        </mxCell>
        <mxCell id="4V30dgzt980ubBhqh5WE-1" value="HTTPS" style="text;html=1;align=center;verticalAlign=middle;whiteSpace=wrap;rounded=0;fontSize=9;fontColor=#FF3333;" parent="1" vertex="1">
          <mxGeometry x="465" y="707.5" width="60" height="30" as="geometry" />
        </mxCell>
        <mxCell id="4V30dgzt980ubBhqh5WE-49" value="REST" style="text;html=1;align=center;verticalAlign=middle;whiteSpace=wrap;rounded=0;fontSize=9;" parent="1" vertex="1">
          <mxGeometry x="465" y="720" width="60" height="30" as="geometry" />
        </mxCell>
        <mxCell id="4V30dgzt980ubBhqh5WE-54" value="Minio" style="shape=cylinder3;whiteSpace=wrap;html=1;boundedLbl=1;backgroundOutline=1;size=15;fillColor=#f8cecc;strokeColor=#b85450;shadow=1;" parent="1" vertex="1">
          <mxGeometry x="778" y="849" width="59" height="75" as="geometry" />
        </mxCell>
        <mxCell id="4V30dgzt980ubBhqh5WE-55" style="edgeStyle=orthogonalEdgeStyle;rounded=0;orthogonalLoop=1;jettySize=auto;html=1;entryX=0;entryY=0;entryDx=0;entryDy=26.25;entryPerimeter=0;dashed=1;dashPattern=1 2;exitX=1;exitY=0.25;exitDx=0;exitDy=0;" parent="1" source="PlNmb0B_r6p4pkELcmV9-4" target="4V30dgzt980ubBhqh5WE-54" edge="1">
          <mxGeometry relative="1" as="geometry">
            <mxPoint x="676" y="874.5" as="sourcePoint" />
            <Array as="points">
              <mxPoint x="712" y="588" />
              <mxPoint x="712" y="875" />
            </Array>
          </mxGeometry>
        </mxCell>
        <mxCell id="4V30dgzt980ubBhqh5WE-69" value="" style="shape=image;imageAspect=0;aspect=fixed;verticalLabelPosition=bottom;verticalAlign=top;image=data:image/png,iVBORw0KGgoAAAANSUhEUgAAACEAAAAgCAYAAACcuBHKAAAAAXNSR0IArs4c6QAABrBJREFUWEelV3lU1FUU/u5szMAMAjMMYJaaLZ7K8pBGVi7lCTxKppUt1jELK1MSCXdERZFcUqP0RKtbaHpKxWxf8GjYUUzLbNPSQ1bAyDKAMDMwM6/ug4GRmR9g3b/mvLu8b+7y3fcj/EcRQtwE4AsAFgANAO4hoqL/Eo4u1UkIcSeADytrvYaUvEr8WemBNUKNN9PMuMysdgN4hIjeu5S43QYhhJgAYFupza2ZkleF6npvwD0mgwr5qVHof7mWldOJKL87YLoEIYSYDuDlk6XNqmkbqtDgFF3G1WkJa5+KxJD+IWy7iIiWdeakCEIIsRRAVvFPLmS8WYNmd9eXd7xIrQIWPxqBMYMNrHoFQBoRBQQKACGEeBXA1H1HHMjeZoc3MOsX3fXty3EYPqccFzrJEBEwY6wJk0Ya2Xc7EU30D3IRCCHE6Y+POq7K2mJHd/83g7hlZhk8XYD1XZp6jwlP3G08T0RW31kbCCGEwe0RjQnp5V3W3N/gaF4cBqWVXZLPZzkxMIerYojIxo7+ICZ8/ZNrZ1p+dZcBe1nUmHVfD8RfpUOYnmSzHv+9CWt316HUxlPauTwz2oSnRxnnENHqjiC+mbq+6taSU01tERY+3ANDb9AjaWGFPAsPVWHfEqu8WElczQLjc86josYjTVanROLqnhqMW3a+zYV55eOl1rNEdGVHEO6E9DK1u8VXikoFbM2wILqHGjnv1mLd05Hy/MBJJzI32xFlUqFwkRULNttR9L0Tcx4Ix/jbQqXNvI01GDckFAOv1OG+5e2gfLG5l4i4ZVvL8e84qoSAR6m2nBFf8LHZNvxV1YJ0QB8dNj1vRl5hHbZ8ycwNMGEVrYyRda6s9SIpqyWLHaX4xVjodWQgIqdEIoQYdKbcXTIhtz1l/k57F1uZkuWRze5B8hKbnIa7btLLdO840IBV79XJi7fNteCay7TStsktMOT54I2eOzkCSfGGcURU6ANRsHxH7cRdxY0BiENDCAdXx+Lgjy54vQLDB+ilzdT1VRh+gx6PjAjDd2easGJnLbbPjQYn+PTfzTjwgwspSUY8troSP59rDoh7fW8ttmRYDhLRMB+ICyPmVoTVOwKHfUqSEc+OMWHo7HI0ugSmJ5vwZKIknaCy/wcnMt6ogYqAkrw4nCxtxuNrKgNsW/VuItL6QIibZwSf9e2t6fXXPzXKiKmjTRACWLenDqnJJvC++PpHF9Jeax/xIy/FSZuE9OCxGaSKoCYhRE/7Be9fIxcEb6APs62w9lBj8MwymE0qTBllwv23h4L3Qu6OWrxf3IjrrtBi6yyLZNl9hx3I/6ge5TUe7F8ZA6NBhUEKf3BLhgXX99YOZBCLCooasplogsn7mdHoE6MJqnM0CTy7vhqrnoyQb4pgwruH/0AwSYw34IXJERsZxLlxS229zlW2E8RzY0147M4waNTtpFTf6MXxM0349JgTJadcKMyywhDSrudp4WwO6K0FB0/or5MZlNMHwOESOHrahfTXa9rw6HWE4hdj6xmEd1BaGXHtfMIEYwolHDzpgkYNHF4Xh8+OOTB/k73NhsmG5cTZJtzYVyd/M8/44jw4LAxzHwjHgk12fHrMgbgoNW7tH4Ldhy6eQElaQojGMYttBq6hkryRZkZ8Px0SF1agqs4rg22YFoU/bG5J0fmpZgy+RoeXCuuw9csG6DSEb9bGwiuAwZ0st1Y7L4MY7vFif8LMMsX1zbPPnc5jxSnfkxUtmfGO2eUyzdykrOf689mBVbEygw+tOI/f/lZeaGwXpqeJvhF9pazak8pMqCRMWuzUwvaQpZr5evs4po8Pl33kEy4dl1AxuzPMvIV3EdH9/qv8lw+OOK5d8k573TsGYACfLIuBJVzV0nCihZq1GpJZ8snoRTZU2JXLO2lkGNLuDS8nItlYHV9Wrllv1eh4IypJ0YoYFBS1LKvkBAOijGrw+i457cK2ogZszrDIPuB+CCa81t+dF83UrCUiSdEdQTAf1ydmVqAqyJN+5EA9XpgcKZ9zSpIzKQJ9YzV4dFUgVfsaFkDbqyoAREuKxRAhcIgJxn9sWVcwx4LPjzmx6YsLiiBMoSp8lRsTlKAOrYlFiJbk5vQPEPSJJITIqa73Zt6dGZzKFRF0oiiYbeGPoreJKCWg15T8hBDf7j/hjOdvjv8r05JNSEk0tj3nug2itTSN2QV2w97DyqPWFUBm043pZiYLXbAPn6A94R9UCMHfcU5eUkdOubq6L0DfL06DnfOj+TySiBRnvzvfohzlVw50ySiAen6KElFpZ77/AByXv0C3+ik6AAAAAElFTkSuQmCC;" parent="1" vertex="1">
          <mxGeometry x="847" y="1027" width="33" height="32" as="geometry" />
        </mxCell>
        <mxCell id="mdcIbK_PWt9U1-krvojf-1" value="" style="rounded=0;whiteSpace=wrap;html=1;shadow=0;sketch=1;curveFitting=1;jiggle=2;fillColor=#f5f5f5;fontColor=#333333;strokeColor=#666666;" parent="1" vertex="1">
          <mxGeometry x="-5" y="-690" width="1061" height="987" as="geometry" />
        </mxCell>
        <mxCell id="mdcIbK_PWt9U1-krvojf-2" value="[AWS Cloud]" style="text;html=1;align=center;verticalAlign=middle;whiteSpace=wrap;rounded=0;fontStyle=0;fontColor=#808080;movable=1;resizable=1;rotatable=1;deletable=1;editable=1;locked=0;connectable=1;points=[[0,0,0,0,0],[0,0.25,0,0,0],[0,0.5,0,0,0],[0,0.75,0,0,0],[0,1,0,0,0],[0.25,0,0,0,0],[0.25,1,0,0,0],[0.5,0,0,0,0],[0.5,1,0,0,0],[0.75,0,0,0,0],[0.75,1,0,0,0],[1,0,0,0,0],[1,0.25,0,0,0],[1,0.5,0,0,0],[1,0.75,0,0,0],[1,1,0,0,0]];" parent="1" vertex="1">
          <mxGeometry x="35" y="-686" width="83" height="22" as="geometry" />
        </mxCell>
        <mxCell id="mdcIbK_PWt9U1-krvojf-3" value="" style="rounded=0;whiteSpace=wrap;html=1;glass=0;strokeColor=#666666;fillColor=#f5f5f5;fontColor=#333333;sketch=1;curveFitting=1;jiggle=2;" parent="1" vertex="1">
          <mxGeometry x="18.5" y="-627" width="1014" height="915" as="geometry" />
        </mxCell>
        <mxCell id="mdcIbK_PWt9U1-krvojf-5" value="" style="rounded=0;whiteSpace=wrap;html=1;glass=0;strokeColor=#4C0099;gradientColor=none;dashed=1;dashPattern=1 2;" parent="1" vertex="1">
          <mxGeometry x="46" y="-593" width="513" height="876" as="geometry" />
        </mxCell>
        <mxCell id="mdcIbK_PWt9U1-krvojf-6" value="" style="rounded=0;whiteSpace=wrap;html=1;glass=0;strokeColor=#4C0099;gradientColor=none;dashed=1;dashPattern=1 2;" parent="1" vertex="1">
          <mxGeometry x="565" y="-593" width="461" height="450" as="geometry" />
        </mxCell>
        <mxCell id="mdcIbK_PWt9U1-krvojf-7" value="Availability Zone us-east-1a" style="text;html=1;align=center;verticalAlign=middle;whiteSpace=wrap;rounded=0;fontStyle=0;fontColor=#4C0099;movable=1;resizable=1;rotatable=1;deletable=1;editable=1;locked=0;connectable=1;points=[[0,0,0,0,0],[0,0.25,0,0,0],[0,0.5,0,0,0],[0,0.75,0,0,0],[0,1,0,0,0],[0.25,0,0,0,0],[0.25,1,0,0,0],[0.5,0,0,0,0],[0.5,1,0,0,0],[0.75,0,0,0,0],[0.75,1,0,0,0],[1,0,0,0,0],[1,0.25,0,0,0],[1,0.5,0,0,0],[1,0.75,0,0,0],[1,1,0,0,0]];" parent="1" vertex="1">
          <mxGeometry x="195.5" y="-581" width="155" height="20" as="geometry" />
        </mxCell>
        <mxCell id="mdcIbK_PWt9U1-krvojf-8" value="Availability Zone us-east-1b" style="text;html=1;align=center;verticalAlign=middle;whiteSpace=wrap;rounded=0;fontStyle=0;fontColor=#4C0099;movable=1;resizable=1;rotatable=1;deletable=1;editable=1;locked=0;connectable=1;points=[[0,0,0,0,0],[0,0.25,0,0,0],[0,0.5,0,0,0],[0,0.75,0,0,0],[0,1,0,0,0],[0.25,0,0,0,0],[0.25,1,0,0,0],[0.5,0,0,0,0],[0.5,1,0,0,0],[0.75,0,0,0,0],[0.75,1,0,0,0],[1,0,0,0,0],[1,0.25,0,0,0],[1,0.5,0,0,0],[1,0.75,0,0,0],[1,1,0,0,0]];" parent="1" vertex="1">
          <mxGeometry x="713" y="-583" width="155" height="20" as="geometry" />
        </mxCell>
        <mxCell id="mdcIbK_PWt9U1-krvojf-9" value="" style="rounded=0;whiteSpace=wrap;html=1;align=center;fillColor=#f9f7ed;strokeColor=#36393d;glass=0;shadow=0;" parent="1" vertex="1">
          <mxGeometry x="57" y="-557" width="477" height="107" as="geometry" />
        </mxCell>
        <mxCell id="mdcIbK_PWt9U1-krvojf-10" value="Public Subnet" style="text;html=1;align=center;verticalAlign=middle;whiteSpace=wrap;rounded=0;fontStyle=0;fontColor=#663300;movable=1;resizable=1;rotatable=1;deletable=1;editable=1;locked=0;connectable=1;points=[[0,0,0,0,0],[0,0.25,0,0,0],[0,0.5,0,0,0],[0,0.75,0,0,0],[0,1,0,0,0],[0.25,0,0,0,0],[0.25,1,0,0,0],[0.5,0,0,0,0],[0.5,1,0,0,0],[0.75,0,0,0,0],[0.75,1,0,0,0],[1,0,0,0,0],[1,0.25,0,0,0],[1,0.5,0,0,0],[1,0.75,0,0,0],[1,1,0,0,0]];" parent="1" vertex="1">
          <mxGeometry x="79" y="-550" width="99" height="20" as="geometry" />
        </mxCell>
        <mxCell id="mdcIbK_PWt9U1-krvojf-11" value="" style="rounded=0;whiteSpace=wrap;html=1;align=center;fillColor=#d5e8d4;strokeColor=#82b366;" parent="1" vertex="1">
          <mxGeometry x="598" y="-557" width="421" height="107" as="geometry" />
        </mxCell>
        <mxCell id="mdcIbK_PWt9U1-krvojf-12" value="Public Subnet" style="text;html=1;align=center;verticalAlign=middle;whiteSpace=wrap;rounded=0;fontStyle=0;fontColor=#663300;movable=1;resizable=1;rotatable=1;deletable=1;editable=1;locked=0;connectable=1;points=[[0,0,0,0,0],[0,0.25,0,0,0],[0,0.5,0,0,0],[0,0.75,0,0,0],[0,1,0,0,0],[0.25,0,0,0,0],[0.25,1,0,0,0],[0.5,0,0,0,0],[0.5,1,0,0,0],[0.75,0,0,0,0],[0.75,1,0,0,0],[1,0,0,0,0],[1,0.25,0,0,0],[1,0.5,0,0,0],[1,0.75,0,0,0],[1,1,0,0,0]];" parent="1" vertex="1">
          <mxGeometry x="903" y="-555" width="99" height="20" as="geometry" />
        </mxCell>
        <mxCell id="mdcIbK_PWt9U1-krvojf-13" value="" style="rounded=0;whiteSpace=wrap;html=1;align=center;fillColor=#f5f5f5;strokeColor=#666666;fontColor=#333333;" parent="1" vertex="1">
          <mxGeometry x="57" y="-443" width="477" height="720" as="geometry" />
        </mxCell>
        <mxCell id="mdcIbK_PWt9U1-krvojf-15" value="Private Subnet" style="text;html=1;align=center;verticalAlign=middle;whiteSpace=wrap;rounded=0;fontStyle=0;fontColor=#4C0099;movable=1;resizable=1;rotatable=1;deletable=1;editable=1;locked=0;connectable=1;points=[[0,0,0,0,0],[0,0.25,0,0,0],[0,0.5,0,0,0],[0,0.75,0,0,0],[0,1,0,0,0],[0.25,0,0,0,0],[0.25,1,0,0,0],[0.5,0,0,0,0],[0.5,1,0,0,0],[0.75,0,0,0,0],[0.75,1,0,0,0],[1,0,0,0,0],[1,0.25,0,0,0],[1,0.5,0,0,0],[1,0.75,0,0,0],[1,1,0,0,0]];" parent="1" vertex="1">
          <mxGeometry x="79" y="-438" width="96" height="20" as="geometry" />
        </mxCell>
        <mxCell id="mdcIbK_PWt9U1-krvojf-18" value="" style="rounded=1;whiteSpace=wrap;html=1;dashed=1;dashPattern=1 2;fillColor=none;strokeColor=#CC0000;strokeWidth=2;perimeterSpacing=1;" parent="1" vertex="1">
          <mxGeometry x="303" y="-543" width="469" height="80" as="geometry" />
        </mxCell>
        <mxCell id="mdcIbK_PWt9U1-krvojf-19" value="INGRESS" style="text;html=1;align=center;verticalAlign=middle;whiteSpace=wrap;rounded=0;fontStyle=1;fontColor=#CC0000;movable=1;resizable=1;rotatable=1;deletable=1;editable=1;locked=0;connectable=1;points=[[0,0,0,0,0],[0,0.25,0,0,0],[0,0.5,0,0,0],[0,0.75,0,0,0],[0,1,0,0,0],[0.25,0,0,0,0],[0.25,1,0,0,0],[0.5,0,0,0,0],[0.5,1,0,0,0],[0.75,0,0,0,0],[0.75,1,0,0,0],[1,0,0,0,0],[1,0.25,0,0,0],[1,0.5,0,0,0],[1,0.75,0,0,0],[1,1,0,0,0]];" parent="1" vertex="1">
          <mxGeometry x="306.5" y="-527" width="70.5" height="15" as="geometry" />
        </mxCell>
        <mxCell id="mdcIbK_PWt9U1-krvojf-20" value="" style="sketch=0;outlineConnect=0;fontColor=#232F3E;gradientColor=none;fillColor=#8C4FFF;strokeColor=none;dashed=0;verticalLabelPosition=bottom;verticalAlign=top;align=center;html=1;fontSize=12;fontStyle=0;aspect=fixed;pointerEvents=1;shape=mxgraph.aws4.gateway_load_balancer;rotation=90;" parent="1" vertex="1">
          <mxGeometry x="530" y="-535" width="36" height="36" as="geometry" />
        </mxCell>
        <mxCell id="mdcIbK_PWt9U1-krvojf-21" value="Application Load Balencer" style="text;html=1;align=center;verticalAlign=middle;whiteSpace=wrap;rounded=0;fontStyle=0;fontColor=#000000;movable=1;resizable=1;rotatable=1;deletable=1;editable=1;locked=0;connectable=1;points=[[0,0,0,0,0],[0,0.25,0,0,0],[0,0.5,0,0,0],[0,0.75,0,0,0],[0,1,0,0,0],[0.25,0,0,0,0],[0.25,1,0,0,0],[0.5,0,0,0,0],[0.5,1,0,0,0],[0.75,0,0,0,0],[0.75,1,0,0,0],[1,0,0,0,0],[1,0.25,0,0,0],[1,0.5,0,0,0],[1,0.75,0,0,0],[1,1,0,0,0]];" parent="1" vertex="1">
          <mxGeometry x="485.75" y="-496" width="164.5" height="20" as="geometry" />
        </mxCell>
        <mxCell id="mdcIbK_PWt9U1-krvojf-23" value="EC2 Worker Node" style="text;html=1;align=center;verticalAlign=middle;whiteSpace=wrap;rounded=0;fontStyle=0;fontColor=#CC0000;movable=1;resizable=1;rotatable=1;deletable=1;editable=1;locked=0;connectable=1;points=[[0,0,0,0,0],[0,0.25,0,0,0],[0,0.5,0,0,0],[0,0.75,0,0,0],[0,1,0,0,0],[0.25,0,0,0,0],[0.25,1,0,0,0],[0.5,0,0,0,0],[0.5,1,0,0,0],[0.75,0,0,0,0],[0.75,1,0,0,0],[1,0,0,0,0],[1,0.25,0,0,0],[1,0.5,0,0,0],[1,0.75,0,0,0],[1,1,0,0,0]];" parent="1" vertex="1">
          <mxGeometry x="287.75" y="-414" width="124.5" height="20" as="geometry" />
        </mxCell>
        <mxCell id="mdcIbK_PWt9U1-krvojf-24" value="Product-service" style="rounded=1;whiteSpace=wrap;html=1;align=center;fillColor=#e1d5e7;strokeColor=#9673a6;" parent="1" vertex="1">
          <mxGeometry x="209.5" y="-218" width="136" height="56.5" as="geometry" />
        </mxCell>
        <mxCell id="mdcIbK_PWt9U1-krvojf-26" value="&lt;span style=&quot;white-space: pre;&quot;&gt;&#x9;&lt;/span&gt;Product-composite-service" style="rounded=1;whiteSpace=wrap;html=1;align=center;fillColor=#e1d5e7;strokeColor=#9673a6;" parent="1" vertex="1">
          <mxGeometry x="209.5" y="-299" width="135" height="55" as="geometry" />
        </mxCell>
        <mxCell id="mdcIbK_PWt9U1-krvojf-38" style="rounded=0;orthogonalLoop=1;jettySize=auto;html=1;dashed=1;dashPattern=1 2;strokeColor=#0000FF;edgeStyle=orthogonalEdgeStyle;" parent="1" source="mdcIbK_PWt9U1-krvojf-28" target="mdcIbK_PWt9U1-krvojf-58" edge="1">
          <mxGeometry relative="1" as="geometry">
            <mxPoint x="107.5" y="-143" as="targetPoint" />
          </mxGeometry>
        </mxCell>
        <mxCell id="mdcIbK_PWt9U1-krvojf-28" value="Review-service" style="rounded=1;whiteSpace=wrap;html=1;align=center;fillColor=#e1d5e7;strokeColor=#9673a6;" parent="1" vertex="1">
          <mxGeometry x="212.75" y="-140" width="136" height="55" as="geometry" />
        </mxCell>
        <mxCell id="mdcIbK_PWt9U1-krvojf-30" value="" style="outlineConnect=0;dashed=0;verticalLabelPosition=bottom;verticalAlign=top;align=center;html=1;shape=mxgraph.aws3.vpn_gateway;fillColor=#0050ef;strokeColor=#001DBC;fontColor=#ffffff;" parent="1" vertex="1">
          <mxGeometry x="61" y="-439" width="22" height="21" as="geometry" />
        </mxCell>
        <mxCell id="mdcIbK_PWt9U1-krvojf-34" style="edgeStyle=orthogonalEdgeStyle;rounded=0;orthogonalLoop=1;jettySize=auto;html=1;strokeColor=#0000FF;dashed=1;dashPattern=1 2;" parent="1" source="mdcIbK_PWt9U1-krvojf-31" target="mdcIbK_PWt9U1-krvojf-65" edge="1">
          <mxGeometry relative="1" as="geometry">
            <mxPoint x="133" y="-357" as="targetPoint" />
          </mxGeometry>
        </mxCell>
        <mxCell id="mdcIbK_PWt9U1-krvojf-31" value="API Gateway" style="rounded=1;whiteSpace=wrap;html=1;align=center;fillColor=#e1d5e7;strokeColor=#9673a6;" parent="1" vertex="1">
          <mxGeometry x="208.5" y="-371" width="136" height="48" as="geometry" />
        </mxCell>
        <mxCell id="mdcIbK_PWt9U1-krvojf-37" style="rounded=0;orthogonalLoop=1;jettySize=auto;html=1;exitX=0;exitY=0.5;exitDx=0;exitDy=0;dashed=1;dashPattern=1 2;strokeColor=#0000FF;" parent="1" source="mdcIbK_PWt9U1-krvojf-24" target="mdcIbK_PWt9U1-krvojf-58" edge="1">
          <mxGeometry relative="1" as="geometry">
            <mxPoint x="136" y="-189.875" as="targetPoint" />
          </mxGeometry>
        </mxCell>
        <mxCell id="mdcIbK_PWt9U1-krvojf-39" value="Recommendation-service" style="rounded=1;whiteSpace=wrap;html=1;align=center;fillColor=#e1d5e7;strokeColor=#9673a6;" parent="1" vertex="1">
          <mxGeometry x="212.75" y="-56.25" width="136" height="55" as="geometry" />
        </mxCell>
        <mxCell id="mdcIbK_PWt9U1-krvojf-53" style="edgeStyle=orthogonalEdgeStyle;rounded=0;orthogonalLoop=1;jettySize=auto;html=1;dashed=1;dashPattern=1 2;strokeColor=#0000FF;fontColor=#0000FF;" parent="1" source="mdcIbK_PWt9U1-krvojf-42" target="mdcIbK_PWt9U1-krvojf-63" edge="1">
          <mxGeometry relative="1" as="geometry">
            <mxPoint x="130" y="80" as="targetPoint" />
          </mxGeometry>
        </mxCell>
        <mxCell id="mdcIbK_PWt9U1-krvojf-42" value="Document-service" style="rounded=1;whiteSpace=wrap;html=1;align=center;fillColor=#e1d5e7;strokeColor=#9673a6;" parent="1" vertex="1">
          <mxGeometry x="214.5" y="19.25" width="136" height="55" as="geometry" />
        </mxCell>
        <mxCell id="mdcIbK_PWt9U1-krvojf-44" value="" style="aspect=fixed;sketch=0;html=1;dashed=0;whitespace=wrap;verticalLabelPosition=bottom;verticalAlign=top;fillColor=#2875E2;strokeColor=#ffffff;points=[[0.005,0.63,0],[0.1,0.2,0],[0.9,0.2,0],[0.5,0,0],[0.995,0.63,0],[0.72,0.99,0],[0.5,1,0],[0.28,0.99,0]];shape=mxgraph.kubernetes.icon2;kubernetesLabel=1;prIcon=pod" parent="1" vertex="1">
          <mxGeometry x="320" y="-348" width="22.92" height="22" as="geometry" />
        </mxCell>
        <mxCell id="mdcIbK_PWt9U1-krvojf-45" value="" style="aspect=fixed;sketch=0;html=1;dashed=0;whitespace=wrap;verticalLabelPosition=bottom;verticalAlign=top;fillColor=#2875E2;strokeColor=#ffffff;points=[[0.005,0.63,0],[0.1,0.2,0],[0.9,0.2,0],[0.5,0,0],[0.995,0.63,0],[0.72,0.99,0],[0.5,1,0],[0.28,0.99,0]];shape=mxgraph.kubernetes.icon2;kubernetesLabel=1;prIcon=pod" parent="1" vertex="1">
          <mxGeometry x="317" y="-269" width="22.92" height="22" as="geometry" />
        </mxCell>
        <mxCell id="mdcIbK_PWt9U1-krvojf-46" value="" style="aspect=fixed;sketch=0;html=1;dashed=0;whitespace=wrap;verticalLabelPosition=bottom;verticalAlign=top;fillColor=#2875E2;strokeColor=#ffffff;points=[[0.005,0.63,0],[0.1,0.2,0],[0.9,0.2,0],[0.5,0,0],[0.995,0.63,0],[0.72,0.99,0],[0.5,1,0],[0.28,0.99,0]];shape=mxgraph.kubernetes.icon2;kubernetesLabel=1;prIcon=pod" parent="1" vertex="1">
          <mxGeometry x="317" y="-186" width="22.92" height="22" as="geometry" />
        </mxCell>
        <mxCell id="mdcIbK_PWt9U1-krvojf-47" value="" style="aspect=fixed;sketch=0;html=1;dashed=0;whitespace=wrap;verticalLabelPosition=bottom;verticalAlign=top;fillColor=#2875E2;strokeColor=#ffffff;points=[[0.005,0.63,0],[0.1,0.2,0],[0.9,0.2,0],[0.5,0,0],[0.995,0.63,0],[0.72,0.99,0],[0.5,1,0],[0.28,0.99,0]];shape=mxgraph.kubernetes.icon2;kubernetesLabel=1;prIcon=pod" parent="1" vertex="1">
          <mxGeometry x="317" y="-109" width="22.92" height="22" as="geometry" />
        </mxCell>
        <mxCell id="mdcIbK_PWt9U1-krvojf-48" value="" style="aspect=fixed;sketch=0;html=1;dashed=0;whitespace=wrap;verticalLabelPosition=bottom;verticalAlign=top;fillColor=#2875E2;strokeColor=#ffffff;points=[[0.005,0.63,0],[0.1,0.2,0],[0.9,0.2,0],[0.5,0,0],[0.995,0.63,0],[0.72,0.99,0],[0.5,1,0],[0.28,0.99,0]];shape=mxgraph.kubernetes.icon2;kubernetesLabel=1;prIcon=pod" parent="1" vertex="1">
          <mxGeometry x="317" y="-23.25" width="22.92" height="22" as="geometry" />
        </mxCell>
        <mxCell id="mdcIbK_PWt9U1-krvojf-49" value="" style="aspect=fixed;sketch=0;html=1;dashed=0;whitespace=wrap;verticalLabelPosition=bottom;verticalAlign=top;fillColor=#2875E2;strokeColor=#ffffff;points=[[0.005,0.63,0],[0.1,0.2,0],[0.9,0.2,0],[0.5,0,0],[0.995,0.63,0],[0.72,0.99,0],[0.5,1,0],[0.28,0.99,0]];shape=mxgraph.kubernetes.icon2;kubernetesLabel=1;prIcon=pod" parent="1" vertex="1">
          <mxGeometry x="322.58" y="52.24999999999999" width="22.92" height="22" as="geometry" />
        </mxCell>
        <mxCell id="mdcIbK_PWt9U1-krvojf-55" style="edgeStyle=orthogonalEdgeStyle;rounded=0;orthogonalLoop=1;jettySize=auto;html=1;dashed=1;dashPattern=1 1;strokeColor=#0000FF;" parent="1" source="mdcIbK_PWt9U1-krvojf-39" target="mdcIbK_PWt9U1-krvojf-60" edge="1">
          <mxGeometry relative="1" as="geometry">
            <mxPoint x="141" y="-28.75" as="targetPoint" />
          </mxGeometry>
        </mxCell>
        <mxCell id="mdcIbK_PWt9U1-krvojf-56" value="" style="sketch=0;outlineConnect=0;fontColor=#232F3E;gradientColor=none;fillColor=#7AA116;strokeColor=none;dashed=0;verticalLabelPosition=bottom;verticalAlign=top;align=center;html=1;fontSize=12;fontStyle=0;aspect=fixed;pointerEvents=1;shape=mxgraph.aws4.iot_greengrass_component_public;" parent="1" vertex="1">
          <mxGeometry x="59" y="-552" width="24" height="24" as="geometry" />
        </mxCell>
        <mxCell id="mdcIbK_PWt9U1-krvojf-58" value="Amazon RDS" style="sketch=0;outlineConnect=0;strokeColor=#9673a6;fillColor=#e1d5e7;dashed=0;verticalLabelPosition=middle;verticalAlign=bottom;align=center;html=1;whiteSpace=wrap;fontSize=10;fontStyle=1;spacing=3;shape=mxgraph.aws4.productIcon;prIcon=mxgraph.aws4.rds;fontColor=#FFFFFF;" parent="1" vertex="1">
          <mxGeometry x="73.5" y="-234.75" width="64" height="92.75" as="geometry" />
        </mxCell>
        <mxCell id="mdcIbK_PWt9U1-krvojf-60" value="Amazon DynamoDB" style="sketch=0;outlineConnect=0;strokeColor=#9673a6;fillColor=#e1d5e7;dashed=0;verticalLabelPosition=middle;verticalAlign=bottom;align=center;html=1;whiteSpace=wrap;fontSize=10;fontStyle=1;spacing=3;shape=mxgraph.aws4.productIcon;prIcon=mxgraph.aws4.dynamodb;fontColor=#FFFFFF;" parent="1" vertex="1">
          <mxGeometry x="74" y="-76.75" width="67" height="96" as="geometry" />
        </mxCell>
        <mxCell id="mdcIbK_PWt9U1-krvojf-63" value="Amazon S3" style="sketch=0;outlineConnect=0;strokeColor=#9673a6;fillColor=#e1d5e7;dashed=0;verticalLabelPosition=middle;verticalAlign=bottom;align=center;html=1;whiteSpace=wrap;fontSize=10;fontStyle=1;spacing=3;shape=mxgraph.aws4.productIcon;prIcon=mxgraph.aws4.s3;fontColor=#FFFFFF;" parent="1" vertex="1">
          <mxGeometry x="71" y="42" width="66" height="85.25" as="geometry" />
        </mxCell>
        <mxCell id="mdcIbK_PWt9U1-krvojf-65" value="Amazon ElastiCache for Redis" style="sketch=0;outlineConnect=0;strokeColor=#9673a6;fillColor=#e1d5e7;dashed=0;verticalLabelPosition=middle;verticalAlign=bottom;align=center;html=1;whiteSpace=wrap;fontSize=10;fontStyle=1;spacing=3;shape=mxgraph.aws4.productIcon;prIcon=mxgraph.aws4.elasticache_for_redis;fontColor=#FFFFFF;" parent="1" vertex="1">
          <mxGeometry x="73.5" y="-397" width="61" height="100" as="geometry" />
        </mxCell>
        <mxCell id="mdcIbK_PWt9U1-krvojf-68" value="" style="dashed=0;outlineConnect=0;html=1;align=center;labelPosition=center;verticalLabelPosition=bottom;verticalAlign=top;shape=mxgraph.weblogos.aws_s3" parent="1" vertex="1">
          <mxGeometry x="-0.25" y="-687" width="30.5" height="24" as="geometry" />
        </mxCell>
        <mxCell id="mdcIbK_PWt9U1-krvojf-69" value="" style="outlineConnect=0;dashed=0;verticalLabelPosition=bottom;verticalAlign=top;align=center;html=1;shape=mxgraph.aws3.virtual_private_cloud;fillColor=#F58534;gradientColor=none;" parent="1" vertex="1">
          <mxGeometry x="22" y="-620" width="26" height="17" as="geometry" />
        </mxCell>
        <mxCell id="d5XKviYp5zw6MmtePsME-5" style="edgeStyle=orthogonalEdgeStyle;rounded=0;orthogonalLoop=1;jettySize=auto;html=1;entryX=1;entryY=0.5;entryDx=0;entryDy=0;exitX=0.5;exitY=1;exitDx=0;exitDy=0;dashed=1;dashPattern=1 2;strokeColor=#CC0000;" parent="1" source="d5XKviYp5zw6MmtePsME-1" target="mdcIbK_PWt9U1-krvojf-26" edge="1">
          <mxGeometry relative="1" as="geometry" />
        </mxCell>
        <mxCell id="d5XKviYp5zw6MmtePsME-6" style="edgeStyle=orthogonalEdgeStyle;rounded=0;orthogonalLoop=1;jettySize=auto;html=1;exitX=0.5;exitY=1;exitDx=0;exitDy=0;entryX=1;entryY=0.5;entryDx=0;entryDy=0;dashed=1;dashPattern=1 2;strokeColor=#CC0000;" parent="1" source="d5XKviYp5zw6MmtePsME-1" target="mdcIbK_PWt9U1-krvojf-24" edge="1">
          <mxGeometry relative="1" as="geometry" />
        </mxCell>
        <mxCell id="d5XKviYp5zw6MmtePsME-7" style="edgeStyle=orthogonalEdgeStyle;rounded=0;orthogonalLoop=1;jettySize=auto;html=1;exitX=0.5;exitY=1;exitDx=0;exitDy=0;entryX=1;entryY=0.5;entryDx=0;entryDy=0;dashed=1;dashPattern=1 2;strokeColor=#CC0000;" parent="1" source="d5XKviYp5zw6MmtePsME-1" target="mdcIbK_PWt9U1-krvojf-28" edge="1">
          <mxGeometry relative="1" as="geometry" />
        </mxCell>
        <mxCell id="d5XKviYp5zw6MmtePsME-8" style="edgeStyle=orthogonalEdgeStyle;rounded=0;orthogonalLoop=1;jettySize=auto;html=1;exitX=0.5;exitY=1;exitDx=0;exitDy=0;entryX=1;entryY=0.5;entryDx=0;entryDy=0;dashed=1;dashPattern=1 2;strokeColor=#CC0000;" parent="1" source="d5XKviYp5zw6MmtePsME-1" target="mdcIbK_PWt9U1-krvojf-39" edge="1">
          <mxGeometry relative="1" as="geometry" />
        </mxCell>
        <mxCell id="d5XKviYp5zw6MmtePsME-9" style="edgeStyle=orthogonalEdgeStyle;rounded=0;orthogonalLoop=1;jettySize=auto;html=1;exitX=0.5;exitY=1;exitDx=0;exitDy=0;entryX=1;entryY=0.5;entryDx=0;entryDy=0;dashed=1;dashPattern=1 2;strokeColor=#CC0000;" parent="1" source="d5XKviYp5zw6MmtePsME-1" target="mdcIbK_PWt9U1-krvojf-42" edge="1">
          <mxGeometry relative="1" as="geometry" />
        </mxCell>
        <mxCell id="d5XKviYp5zw6MmtePsME-11" style="rounded=0;orthogonalLoop=1;jettySize=auto;html=1;exitX=0;exitY=0.5;exitDx=0;exitDy=0;entryX=1;entryY=0.5;entryDx=0;entryDy=0;strokeColor=#CC0000;dashed=1;dashPattern=1 2;" parent="1" source="d5XKviYp5zw6MmtePsME-1" target="mdcIbK_PWt9U1-krvojf-31" edge="1">
          <mxGeometry relative="1" as="geometry" />
        </mxCell>
        <mxCell id="d5XKviYp5zw6MmtePsME-1" value="KeyCloack" style="rounded=1;whiteSpace=wrap;html=1;align=center;fillColor=#e1d5e7;strokeColor=#9673a6;" parent="1" vertex="1">
          <mxGeometry x="371" y="-371" width="135" height="48" as="geometry" />
        </mxCell>
        <mxCell id="d5XKviYp5zw6MmtePsME-4" value="" style="aspect=fixed;sketch=0;html=1;dashed=0;whitespace=wrap;verticalLabelPosition=bottom;verticalAlign=top;fillColor=#2875E2;strokeColor=#ffffff;points=[[0.005,0.63,0],[0.1,0.2,0],[0.9,0.2,0],[0.5,0,0],[0.995,0.63,0],[0.72,0.99,0],[0.5,1,0],[0.28,0.99,0]];shape=mxgraph.kubernetes.icon2;kubernetesLabel=1;prIcon=pod" parent="1" vertex="1">
          <mxGeometry x="475.03999999999996" y="-348" width="22.92" height="22" as="geometry" />
        </mxCell>
        <mxCell id="d5XKviYp5zw6MmtePsME-12" value="OAuth2" style="text;html=1;align=center;verticalAlign=middle;whiteSpace=wrap;rounded=0;" parent="1" vertex="1">
          <mxGeometry x="442" y="-167" width="60" height="27" as="geometry" />
        </mxCell>
        <mxCell id="d5XKviYp5zw6MmtePsME-13" value="&lt;font color=&quot;#4c0099&quot;&gt;Region&lt;/font&gt;" style="points=[[0,0],[0.25,0],[0.5,0],[0.75,0],[1,0],[1,0.25],[1,0.5],[1,0.75],[1,1],[0.75,1],[0.5,1],[0.25,1],[0,1],[0,0.75],[0,0.5],[0,0.25]];outlineConnect=0;gradientColor=none;html=1;whiteSpace=wrap;fontSize=12;fontStyle=0;container=1;pointerEvents=0;collapsible=0;recursiveResize=0;shape=mxgraph.aws4.group;grIcon=mxgraph.aws4.group_region;strokeColor=#CDA2BE;fillColor=none;verticalAlign=top;align=left;spacingLeft=30;fontColor=#147EBA;dashed=1;" parent="1" vertex="1">
          <mxGeometry x="-0.25" y="-659" width="1050.25" height="951" as="geometry" />
        </mxCell>
        <mxCell id="mdcIbK_PWt9U1-krvojf-22" value="" style="rounded=0;whiteSpace=wrap;html=1;align=center;fillColor=none;strokeColor=#6c8ebf;sketch=1;curveFitting=1;jiggle=2;" parent="d5XKviYp5zw6MmtePsME-13" vertex="1">
          <mxGeometry x="163" y="241" width="358" height="579" as="geometry" />
        </mxCell>
        <mxCell id="hOMSn5TV-CSPXnFCmyDy-3" value="CloudWatch Agent" style="sketch=0;outlineConnect=0;fontColor=#232F3E;gradientColor=none;strokeColor=#232F3E;fillColor=none;dashed=0;verticalLabelPosition=bottom;verticalAlign=top;align=center;html=1;fontSize=12;fontStyle=0;aspect=fixed;shape=mxgraph.aws4.resourceIcon;resIcon=mxgraph.aws4.instance_with_cloudwatch;" parent="d5XKviYp5zw6MmtePsME-13" vertex="1">
          <mxGeometry x="357.25" y="746" width="46" height="46" as="geometry" />
        </mxCell>
        <mxCell id="d5XKviYp5zw6MmtePsME-14" value="Amazon EKS" style="sketch=0;outlineConnect=0;strokeColor=#9673a6;fillColor=#e1d5e7;dashed=0;verticalLabelPosition=middle;verticalAlign=bottom;align=center;html=1;whiteSpace=wrap;fontSize=10;fontStyle=1;spacing=3;shape=mxgraph.aws4.productIcon;prIcon=mxgraph.aws4.eks;fontColor=#FFFFFF;" parent="1" vertex="1">
          <mxGeometry x="461" y="54.25" width="45" height="73" as="geometry" />
        </mxCell>
        <mxCell id="hOMSn5TV-CSPXnFCmyDy-1" value="Amazon CloudWatch" style="sketch=0;outlineConnect=0;strokeColor=#9673A6;fillColor=#e1d5e7;dashed=0;verticalLabelPosition=middle;verticalAlign=bottom;align=center;html=1;whiteSpace=wrap;fontSize=10;fontStyle=1;spacing=3;shape=mxgraph.aws4.productIcon;prIcon=mxgraph.aws4.cloudwatch;fontColor=#FFFFFF;" parent="1" vertex="1">
          <mxGeometry x="71" y="164" width="55" height="81" as="geometry" />
        </mxCell>
        <mxCell id="hOMSn5TV-CSPXnFCmyDy-7" style="edgeStyle=orthogonalEdgeStyle;rounded=0;orthogonalLoop=1;jettySize=auto;html=1;strokeColor=#0000FF;dashed=1;dashPattern=1 2;" parent="1" source="hOMSn5TV-CSPXnFCmyDy-3" target="hOMSn5TV-CSPXnFCmyDy-1" edge="1">
          <mxGeometry relative="1" as="geometry">
            <Array as="points">
              <mxPoint x="147" y="112" />
              <mxPoint x="147" y="204" />
            </Array>
          </mxGeometry>
        </mxCell>
        <mxCell id="QizPW6AbYtv409xV3wsI-2" value="KeyCloak" style="rounded=1;whiteSpace=wrap;html=1;align=center;fillColor=#dae8fc;strokeColor=#6c8ebf;" parent="1" vertex="1">
          <mxGeometry x="118" y="556" width="136" height="48" as="geometry" />
        </mxCell>
        <mxCell id="QizPW6AbYtv409xV3wsI-3" value="" style="shape=image;imageAspect=0;aspect=fixed;verticalLabelPosition=bottom;verticalAlign=top;image=data:image/png,iVBORw0KGgoAAAANSUhEUgAAABgAAAAYCAYAAADgdz34AAAAAXNSR0IArs4c6QAAAg9JREFUSEvllMFLFFEcx7+/2Zll3iab7o6iIiJE0CH6AzoF0d0oopOHZqLMg0QIHbdbdJAkOrWbl04rgfe8eQg66TEQPUQUuzOZ7uZbdWZ+MbvarsuOPlw8SL/L4/H7/d7nfb/zm0c446AzPh//E6D4TZiV1OvI0pqdfaRqrbpFH7y0qPFWdLB0LOW++ELmo7k3a0nzQub5gYIXXSkQhfIMmF6BUAIjA0AnxjgTFmMVvC31YGqg2g7uqKAN0AfAOA6QelfOM5Gd0PYHqg+Gyq2QJoCZRMFdiZIMbY4QTgP0C4w0iHVmekpEs/VmwhI4vAXQqnSsCZF3JQATwE9pZ4dBxIeQJiDHmhjxgoNE5PXLOIsAfARwB8Bn6VjXRd6tAOhps2dBOta9BiDHerSkRt1r9f0+fsDAEHEYMJMGjShJ+vqe71+K0kEY/k4Y2kU/ILmnVzZEkJ4H+H4rICS+smv3f60DRN7dBNCrOhnxdbQO5tWE7z+uTg6WGm42ANGmv1uAtLNaq/9NQMFdAONuVwCiZ9LONoagJeoKzPnNMQqCjS4Aa9KxLnfq/zdFp7aJ8V0+tEbiLtcc0yInxbZXO/wuKmoIeL/jWPZxtUf/5CInzG1vhYCrJzR92kn6tzEx+Oeki3R+7HKsm6PeDWLcZKY+DeyC+IuxayxvPemNRlo5lJ9d5RM7TdFpm1X6zr+Cv8+Guhm4YE01AAAAAElFTkSuQmCC;" parent="1" vertex="1">
          <mxGeometry x="222" y="582" width="24" height="24" as="geometry" />
        </mxCell>
        <mxCell id="QizPW6AbYtv409xV3wsI-5" value="Login" style="text;html=1;align=center;verticalAlign=middle;whiteSpace=wrap;rounded=0;fontSize=9;fontColor=#FF3333;" parent="1" vertex="1">
          <mxGeometry x="6.5" y="606" width="60" height="30" as="geometry" />
        </mxCell>
        <mxCell id="QizPW6AbYtv409xV3wsI-6" value="JWT" style="text;html=1;align=center;verticalAlign=middle;whiteSpace=wrap;rounded=0;fontSize=9;fontColor=#FF3333;" parent="1" vertex="1">
          <mxGeometry x="68.5" y="682" width="60" height="11" as="geometry" />
        </mxCell>
        <mxCell id="QizPW6AbYtv409xV3wsI-8" value="Verify JWT" style="text;html=1;align=center;verticalAlign=middle;whiteSpace=wrap;rounded=0;fontSize=9;fontColor=#FF3333;" parent="1" vertex="1">
          <mxGeometry x="189" y="643.5" width="60" height="11" as="geometry" />
        </mxCell>
        <mxCell id="eoQhRqIUzLGEjEYZ2FUI-2" value="Create product&amp;nbsp; :&amp;nbsp;&lt;div&gt;1 - Add product to the mongodb database&lt;/div&gt;&lt;div&gt;&lt;font color=&quot;#ff0000&quot;&gt;2 - Upload the product image to minaio&amp;nbsp;&lt;/font&gt;&lt;/div&gt;" style="text;html=1;align=left;verticalAlign=middle;whiteSpace=wrap;rounded=0;" vertex="1" parent="1">
          <mxGeometry x="-55" y="1100" width="321" height="30" as="geometry" />
        </mxCell>
        <mxCell id="eoQhRqIUzLGEjEYZ2FUI-4" value="Delete product&amp;nbsp; :&amp;nbsp;&lt;div&gt;1 - Transaction distribue : saga&lt;/div&gt;&lt;div&gt;2 - delete from product database&amp;nbsp;&lt;/div&gt;&lt;div&gt;3 - publish event to delete from recommendation and review database&amp;nbsp;&lt;/div&gt;&lt;div&gt;4 - delete from minaio the image&amp;nbsp;&lt;/div&gt;" style="text;html=1;align=left;verticalAlign=middle;whiteSpace=wrap;rounded=0;" vertex="1" parent="1">
          <mxGeometry x="252" y="1116" width="321" height="30" as="geometry" />
        </mxCell>
      </root>
    </mxGraphModel>
  </diagram>
</mxfile>
